<svg width="217" height="108" viewBox="0 0 217 108" fill="none" xmlns="http://www.w3.org/2000/svg">
<path d="M217 99.9999L205.958 96.6228L208.554 107.874L217 99.9999ZM0.999454 0.500071L0.0771777 0.886604C0.334692 1.50104 0.594798 2.11337 0.857486 2.72356L1.77599 2.32815L2.69449 1.93274C2.43436 1.32846 2.17677 0.722061 1.92173 0.113539L0.999454 0.500071ZM3.37518 5.94586L2.46454 6.35906C3.01328 7.56841 3.5724 8.76903 4.14182 9.96082L5.04412 9.52971L5.94642 9.0986C5.3827 7.91876 4.82915 6.73007 4.28582 5.53265L3.37518 5.94586ZM6.78534 13.0821L5.89188 13.5313C6.48827 14.7177 7.09514 15.8949 7.71241 17.0629L8.59653 16.5957L9.48066 16.1284C8.86977 14.9725 8.26912 13.8073 7.6788 12.633L6.78534 13.0821ZM10.4812 20.0744L9.60694 20.5598C10.2516 21.7207 10.9067 22.872 11.5724 24.0136L12.4362 23.5099L13.3001 23.0062C12.6416 21.8768 11.9933 20.7376 11.3555 19.5889L10.4812 20.0744ZM14.4653 26.9062L13.6123 27.4282C14.3055 28.5609 15.0093 29.6835 15.7237 30.796L16.5652 30.2556L17.4066 29.7153C16.7001 28.615 16.0039 27.5046 15.3182 26.3842L14.4653 26.9062ZM18.7388 33.5606L17.9094 34.1193C18.6513 35.2208 19.4039 36.3118 20.167 37.3922L20.9838 36.8153L21.8006 36.2383C21.0461 35.1701 20.3019 34.0912 19.5682 33.002L18.7388 33.5606ZM23.3018 40.0199L22.4982 40.6151C23.2886 41.6823 24.0897 42.7387 24.9015 43.7841L25.6913 43.1707L26.4811 42.5574C25.6788 41.5241 24.8868 40.4798 24.1054 39.4247L23.3018 40.0199ZM28.1524 46.2659L27.3769 46.8973C28.2154 47.9272 29.0646 48.9458 29.9244 49.953L30.685 49.3037L31.4455 48.6545C30.5958 47.6592 29.7566 46.6525 28.9278 45.6345L28.1524 46.2659ZM33.2872 52.2804L32.5421 52.9474C33.4279 53.9369 34.3243 54.9146 35.2313 55.8805L35.9603 55.1959L36.6893 54.5114C35.7932 53.5571 34.9075 52.5911 34.0322 51.6134L33.2872 52.2804ZM38.7009 58.0452L37.9885 58.7471C38.9204 59.6929 39.8628 60.6266 40.8158 61.5481L41.5109 60.8293L42.2061 60.1104C41.2648 59.2002 40.3338 58.2778 39.4132 57.3434L38.7009 58.0452ZM44.3861 63.5427L43.7087 64.2783C44.6851 65.1775 45.6719 66.0642 46.6692 66.9383L47.3283 66.1863L47.9875 65.4343C47.0026 64.571 46.0279 63.6952 45.0635 62.8071L44.3861 63.5427ZM50.3336 68.7558L49.6932 69.5238C50.7121 70.3735 51.7414 71.2104 52.7809 72.0343L53.4021 71.2507L54.0233 70.467C52.9967 69.6533 51.9803 68.8269 50.974 67.9878L50.3336 68.7558ZM56.5319 73.6687L55.9304 74.4676C56.9896 75.2651 58.0589 76.0495 59.1384 76.8208L59.7197 76.0072L60.3011 75.1935C59.2352 74.4319 58.1793 73.6573 57.1333 72.8698L56.5319 73.6687ZM62.967 78.2667L62.4062 79.0946C63.5032 79.8377 64.6102 80.5676 65.727 81.2841L66.267 80.4424L66.8069 79.6007C65.7041 78.8932 64.6111 78.1725 63.5279 77.4387L62.967 78.2667ZM69.6236 82.5369L69.1049 83.3919C70.2371 84.0788 71.379 84.7524 72.5306 85.4123L73.0278 84.5447L73.525 83.6771C72.3879 83.0254 71.2603 82.3603 70.1424 81.682L69.6236 82.5369ZM76.485 86.4692L76.0095 87.3489C77.1741 87.9783 78.348 88.5941 79.5314 89.1962L79.9849 88.3049L80.4384 87.4137C79.2697 86.8191 78.1104 86.2109 76.9604 85.5894L76.485 86.4692ZM83.5332 90.0553L83.1019 90.9575C84.2957 91.5282 85.4987 92.0853 86.7108 92.6285L87.1198 91.716L87.5288 90.8035C86.3316 90.2669 85.1435 89.7168 83.9645 89.1531L83.5332 90.0553ZM90.7495 93.2898L90.3629 94.212C91.5828 94.7234 92.8116 95.221 94.0491 95.7049L94.4132 94.7735L94.7774 93.8422C93.5548 93.3642 92.341 92.8726 91.136 92.3675L90.7495 93.2898ZM98.1146 96.1694L97.773 97.1093C99.0157 97.561 100.267 97.999 101.527 98.4232L101.846 97.4755L102.165 96.5278C100.92 96.1086 99.684 95.6758 98.4562 95.2296L98.1146 96.1694ZM105.609 98.6935L105.313 99.6485C106.575 100.041 107.845 100.419 109.123 100.784L109.398 99.8223L109.672 98.8607C108.409 98.5002 107.153 98.1261 105.906 97.7386L105.609 98.6935ZM113.214 100.864L112.962 101.832C114.24 102.165 115.526 102.484 116.82 102.79L117.05 101.817L117.28 100.844C116.001 100.541 114.73 100.225 113.466 99.8961L113.214 100.864ZM120.911 102.684L120.703 103.662C121.994 103.937 123.292 104.198 124.598 104.446L124.784 103.464L124.971 102.481C123.68 102.236 122.396 101.978 121.119 101.706L120.911 102.684ZM128.682 104.16L128.517 105.146C129.817 105.364 131.125 105.569 132.439 105.76L132.583 104.77L132.727 103.781C131.427 103.591 130.133 103.389 128.847 103.174L128.682 104.16ZM136.511 105.299L136.388 106.292C137.694 106.453 139.008 106.603 140.328 106.739L140.43 105.744L140.533 104.749C139.226 104.614 137.927 104.467 136.634 104.307L136.511 105.299ZM144.382 106.11L144.3 107.107C145.61 107.215 146.926 107.31 148.249 107.392L148.311 106.394L148.373 105.396C147.064 105.315 145.761 105.22 144.464 105.113L144.382 106.11ZM152.279 106.602L152.236 107.602C153.548 107.657 154.865 107.701 156.189 107.732L156.212 106.732L156.236 105.732C154.925 105.702 153.62 105.659 152.321 105.603L152.279 106.602ZM160.179 106.787L160.175 107.787C161.49 107.793 162.81 107.786 164.137 107.768L164.122 106.768L164.108 105.768C162.794 105.786 161.486 105.793 160.184 105.787L160.179 106.787ZM168.081 106.676L168.113 107.675C169.431 107.633 170.753 107.578 172.082 107.512L172.032 106.513L171.982 105.514C170.665 105.58 169.354 105.634 168.049 105.677L168.081 106.676ZM175.975 106.281L176.042 107.279C177.361 107.189 178.686 107.088 180.016 106.976L179.931 105.979L179.847 104.983C178.528 105.095 177.215 105.195 175.907 105.283L175.975 106.281ZM183.852 105.613L183.953 106.608C185.271 106.474 186.593 106.329 187.921 106.172L187.803 105.179L187.686 104.186C186.369 104.341 185.058 104.486 183.751 104.619L183.852 105.613ZM191.708 104.685L191.841 105.676C193.149 105.5 194.461 105.313 195.778 105.114L195.629 104.125L195.48 103.137C194.174 103.333 192.872 103.519 191.574 103.694L191.708 104.685ZM199.537 103.506L199.701 104.492C200.997 104.277 202.297 104.05 203.602 103.813L203.423 102.829L203.244 101.845C201.949 102.081 200.659 102.305 199.373 102.519L199.537 103.506ZM207.335 102.087L207.529 103.068C208.812 102.815 210.099 102.552 211.39 102.278L211.182 101.299L210.975 100.321C209.693 100.593 208.415 100.855 207.142 101.106L207.335 102.087Z" fill="#0D978B"/>
</svg>
