<svg width="20" height="20" viewBox="0 0 20 20" fill="none" xmlns="http://www.w3.org/2000/svg">
<g clip-path="url(#clip0_1016_22451)">
<path d="M7.9165 12.9867V7.01332C7.91663 6.93859 7.93685 6.86526 7.97506 6.80103C8.01326 6.73679 8.06804 6.68402 8.13365 6.64823C8.19926 6.61244 8.27329 6.59496 8.34798 6.59761C8.42267 6.60027 8.49527 6.62297 8.55817 6.66332L13.2048 9.64916C13.2637 9.68686 13.3121 9.73874 13.3456 9.80005C13.3791 9.86136 13.3967 9.93011 13.3967 9.99999C13.3967 10.0699 13.3791 10.1386 13.3456 10.1999C13.3121 10.2612 13.2637 10.3131 13.2048 10.3508L8.55817 13.3375C8.49527 13.3778 8.42267 13.4005 8.34798 13.4032C8.27329 13.4059 8.19926 13.3884 8.13365 13.3526C8.06804 13.3168 8.01326 13.264 7.97506 13.1998C7.93685 13.1356 7.91663 13.0622 7.9165 12.9875V12.9867Z" fill="#053834"/>
<path d="M0.833496 9.99998C0.833496 4.93748 4.93766 0.833313 10.0002 0.833313C15.0627 0.833313 19.1668 4.93748 19.1668 9.99998C19.1668 15.0625 15.0627 19.1666 10.0002 19.1666C4.93766 19.1666 0.833496 15.0625 0.833496 9.99998ZM10.0002 2.08331C7.90053 2.08331 5.8869 2.91739 4.40223 4.40205C2.91757 5.88671 2.0835 7.90035 2.0835 9.99998C2.0835 12.0996 2.91757 14.1132 4.40223 15.5979C5.8869 17.0826 7.90053 17.9166 10.0002 17.9166C12.0998 17.9166 14.1134 17.0826 15.5981 15.5979C17.0828 14.1132 17.9168 12.0996 17.9168 9.99998C17.9168 7.90035 17.0828 5.88671 15.5981 4.40205C14.1134 2.91739 12.0998 2.08331 10.0002 2.08331Z" fill="#053834"/>
</g>
<defs>
<clipPath id="clip0_1016_22451">
<rect width="20" height="20" fill="white"/>
</clipPath>
</defs>
</svg>
