<svg width="192" height="438" viewBox="0 0 192 438" fill="none" xmlns="http://www.w3.org/2000/svg">
<g opacity="0.2">
<g filter="url(#filter0_f_1081_4703)">
<path d="M191.62 -57C292.547 -56.9998 374.488 24.9791 374.488 126.622C374.488 227.624 292.553 309.609 191.62 309.609C116.535 309.609 51.7826 264.287 23.792 199.18L95.7969 157.419C108.751 197.68 146.948 227.21 191.62 227.21C247.431 227.21 292.462 181.817 292.462 126.305C292.462 70.4626 247.101 25.3997 191.62 25.3994C147.259 25.3994 109.367 54.3278 96.1396 94.2676L24.1289 52.7969C52.4278 -11.7018 116.87 -57 191.62 -57Z" stroke="url(#paint0_linear_1081_4703)" stroke-width="6"/>
<path d="M195.628 340.05C261.473 340.05 318.137 378.863 343.949 434.807H47.0117C73.1217 378.857 129.79 340.05 195.628 340.05Z" stroke="url(#paint1_linear_1081_4703)" stroke-width="6"/>
</g>
</g>
<defs>
<filter id="filter0_f_1081_4703" x="0" y="-80" width="397.488" height="537.807" filterUnits="userSpaceOnUse" color-interpolation-filters="sRGB">
<feFlood flood-opacity="0" result="BackgroundImageFix"/>
<feBlend mode="normal" in="SourceGraphic" in2="BackgroundImageFix" result="shape"/>
<feGaussianBlur stdDeviation="10" result="effect1_foregroundBlur_1081_4703"/>
</filter>
<linearGradient id="paint0_linear_1081_4703" x1="198.744" y1="-60" x2="198.744" y2="312.609" gradientUnits="userSpaceOnUse">
<stop stop-color="white"/>
<stop offset="1" stop-color="white" stop-opacity="0"/>
</linearGradient>
<linearGradient id="paint1_linear_1081_4703" x1="195.469" y1="337.05" x2="195.469" y2="437.807" gradientUnits="userSpaceOnUse">
<stop stop-color="white"/>
<stop offset="1" stop-color="white" stop-opacity="0"/>
</linearGradient>
</defs>
</svg>
